#!OML:ASF H:\Terrain\Patient Classification 1\PLAYGROUND\JustinFriday\JustinFriday.ASF
:FULLY-SPECIFIED
:DEGREES
2312
root 14.5054 26.2977 39.7482 -205.21 2.44959 -171.484
lowerback 34.2505 -10.3257 3.61653
upperback 5.20663 -8.96275 4.963
thorax -11.2105 -3.21648 6.78735
lowerneck -3.90028 11.8594 -36.5297
upperneck 5.79624 17.3225 15.122
head -1.93714 8.54573 9.46213
rclavicle 4.6118e-014 -6.20208e-014
rhumerus 95.4948 17.4307 -73.6064
rradius 102.053
rwrist -348.03
rhand -14.7353 -24.9999
rfingers 7.12502
rthumb 11.4201 -54.6689
lclavicle 4.6118e-014 -6.20208e-014
lhumerus 61.5432 43.1414 46.9642
lradius 93.6643
lwrist -10.5181
lhand -5.11957 6.64221
lfingers 7.12502
lthumb 20.6785 35.5606
rfemur -27.9047 -7.44414 16.5045
rtibia 90.5798
rfoot 19.5569 -8.52843
rtoes -10.2747
lfemur -35.1227 8.11733 10.1085
ltibia 97.5639
lfoot -157.305 165.403
ltoes -8.39402
2313
root 14.5123 26.2942 39.755 -205.431 2.73269 -171.536
lowerback 34.5409 -10.224 3.52637
upperback 5.25707 -8.81745 4.96233
thorax -11.2647 -3.13426 6.798
lowerneck -3.88026 11.8834 -36.5559
upperneck 5.41687 17.341 15.1659
head -2.07045 8.57307 9.45828
rclavicle 6.29153e-014 -6.36111e-015
rhumerus 95.4947 17.4986 -73.5626
rradius 101.939
rwrist -348.202
rhand -15.0446 -24.8867
rfingers 7.12502
rthumb 11.1217 -54.572
lclavicle 6.29153e-014 -6.36111e-015
lhumerus 61.4864 43.1374 46.9111
lradius 93.5852
lwrist -10.4539
lhand -5.17318 6.56541
lfingers 7.12502
lthumb 20.627 35.4894
rfemur -27.6396 -6.68857 16.7905
rtibia 89.4267
rfoot 19.3681 -8.79046
rtoes -8.90612
lfemur -34.6388 7.99084 10.0464
ltibia 95.9949
lfoot -157.092 166.316
ltoes -7.29217
2314
root 14.5119 26.287 39.7589 -205.43 2.52979 -171.471
lowerback 34.4667 -10.3285 3.64284
upperback 5.23459 -8.91663 4.94989
thorax -11.2697 -3.18291 6.75971
lowerneck -4.11953 11.8401 -36.4923
upperneck 5.46104 17.3588 15.3351
head -2.04272 8.58665 9.52344
rclavicle 8.54774e-015 -4.77083e-015
rhumerus 95.4661 17.5678 -73.5258
rradius 101.809
rwrist -348.526
rhand -15.4498 -24.4925
rfingers 7.12502
rthumb 10.7309 -54.1984
lclavicle 8.54774e-015 -4.77083e-015
lhumerus 61.3739 43.1164 46.8611
lradius 93.5152
lwrist -10.424
lhand -5.25757 6.56367
lfingers 7.12502
lthumb 20.5459 35.4964
rfemur -27.6401 -6.57306 16.8899
rtibia 88.2941
rfoot 18.7545 -10.9762
rtoes -1.42717
lfemur -34.5882 7.65387 9.7537
ltibia 94.5534
lfoot -157.376 167.196
ltoes -6.69041
2315
root 14.512 26.2743 39.7638 -205.588 2.32597 -171.536
lowerback 34.5741 -10.3915 3.58208
upperback 5.21897 -9.00881 4.91732
thorax -11.3176 -3.21835 6.80404
lowerneck -4.13425 11.6635 -36.5345
upperneck 5.11018 17.1245 15.5176
head -2.11978 8.48756 9.61262
rclavicle 4.04527e-014 -8.26944e-014
rhumerus 95.4533 17.6378 -73.4957
rradius 101.683
rwrist -348.642
rhand -15.4774 -24.2916
rfingers 7.12502
rthumb 10.7043 -53.9989
lclavicle 4.04527e-014 -8.26944e-014
lhumerus 61.1455 43.0942 46.7673
lradius 93.4107
lwrist -10.3225
lhand -5.47706 6.49438
lfingers 7.12502
lthumb 20.335 35.4498
rfemur -27.5577 -6.57061 16.8843
rtibia 87.0601
rfoot 18.817 -11.5817
rtoes 0.810988
lfemur -34.266 7.0942 9.41151
ltibia 93.2091
lfoot -157.657 168.572
ltoes -4.69463
2316
root 14.5075 26.2517 39.7646 -205.628 2.20817 -171.509
lowerback 34.5161 -10.4916 3.72412
upperback 5.20745 -9.08999 4.89636
thorax -11.3225 -3.25824 6.73719
lowerneck -4.22416 11.728 -36.7706
upperneck 4.94351 17.2458 15.7713
head -2.23444 8.55979 9.70569
rclavicle -2.01766e-014 1.35174e-013
rhumerus 95.4538 17.7474 -73.4668
rradius 101.565
rwrist -348.49
rhand -15.425 -24.3011
rfingers 7.12502
rthumb 10.7548 -54.0058
lclavicle -2.01766e-014 1.35174e-013
lhumerus 60.9859 43.0486 46.7324
lradius 93.2601
lwrist -10.2422
lhand -5.66171 6.30992
lfingers 7.12502
lthumb 20.1575 35.2841
rfemur -27.538 -6.46131 17.0357
rtibia 85.7398
rfoot 19.0919 -11.0168
rtoes -0.403352
lfemur -34.1454 6.78991 9.31781
ltibia 92.032
lfoot -157.719 170.115
ltoes -0.511547
2317
root 14.5063 26.2359 39.7644 -205.672 2.30137 -171.438
lowerback 34.4632 -10.5254 3.87951
upperback 5.233 -9.07189 4.90065
thorax -11.2933 -3.25157 6.64773
lowerneck -4.14592 11.5974 -36.972
upperneck 4.46732 17.051 15.9984
head -2.38842 8.48445 9.81331
rclavicle 3.17062e-014 -7.4743e-014
rhumerus 95.3803 17.8979 -73.5806
rradius 101.528
rwrist -348.055
rhand -15.0679 -24.4432
rfingers 7.12502
rthumb 11.0992 -54.1297
lclavicle 3.17062e-014 -7.4743e-014
lhumerus 60.9168 43.0055 46.8003
lradius 93.2082
lwrist -10.3076
lhand -5.42888 6.2906
lfingers 7.12502
lthumb 20.3813 35.241
rfemur -27.4931 -6.23918 17.3644
rtibia 84.3378
rfoot 19.6187 -10.2314
rtoes -2.88968
lfemur -33.928 6.48386 9.30985
ltibia 90.7394
lfoot -157.762 170.898
ltoes 1.93478
2318
root 14.5101 26.2311 39.7671 -205.784 2.52629 -171.484
lowerback 34.5164 -10.4355 3.81884
upperback 5.29506 -8.96627 4.89812
thorax -11.2445 -3.19879 6.63217
lowerneck -4.08807 11.5539 -36.9454
upperneck 4.11878 16.9718 16.0607
head -2.49222 8.46076 9.82662
rclavicle 6.87795e-014 -1.59028e-015
rhumerus 95.2891 18.0243 -73.7247
rradius 101.532
rwrist -347.759
rhand -14.7449 -24.4371
rfingers 7.12502
rthumb 11.4108 -54.1066
lclavicle 6.87795e-014 -1.59028e-015
lhumerus 60.8766 42.9546 46.9111
lradius 93.272
lwrist -10.3821
lhand -5.08796 6.4026
lfingers 7.12502
lthumb 20.7089 35.3177
rfemur -27.3391 -5.78711 17.6352
rtibia 82.9106
rfoot 19.6746 -10.2993
rtoes -2.19231
lfemur -33.5222 6.29424 9.24276
ltibia 89.2692
lfoot -157.967 172.269
ltoes 5.59681
2319
root 14.5096 26.2121 39.7667 -205.902 2.5695 -171.607
lowerback 34.5237 -10.3875 3.72506
upperback 5.33902 -8.94658 4.84974
thorax -11.1946 -3.18872 6.61601
lowerneck -4.19323 11.4602 -36.9205
upperneck 3.9669 16.8855 16.1716
head -2.51415 8.42886 9.87747
rclavicle -2.94201e-014 4.13472e-014
rhumerus 95.2395 18.1536 -73.6454
rradius 101.48
rwrist -348.012
rhand -15.3503 -24.065
rfingers 7.12502
rthumb 10.8269 -53.7659
lclavicle -2.94201e-014 4.13472e-014
lhumerus 60.7893 42.8824 46.9397
lradius 93.2412
lwrist -10.3827
lhand -5.17939 6.32361
lfingers 7.12502
lthumb 20.621 35.2482
rfemur -27.0446 -5.04656 17.6248
rtibia 81.571
rfoot 17.5775 -13.4802
rtoes 10.2905
lfemur -33.3284 6.01794 8.96753
ltibia 87.7886
lfoot -158.244 173.201
ltoes 7.1888
2320
root 14.5073 26.1999 39.7675 -205.999 2.5129 -171.688
lowerback 34.4968 -10.4022 3.70089
upperback 5.36013 -8.98369 4.80743
thorax -11.1608 -3.20626 6.59263
lowerneck -4.2687 11.3216 -36.9851
upperneck 3.76047 16.7347 16.3398
head -2.55385 8.36711 9.96553
rclavicle -3.926e-014 4.6118e-014
rhumerus 95.125 18.3134 -73.879
rradius 101.485
rwrist -347.165
rhand -14.4205 -24.2478
rfingers 7.12502
rthumb 11.7236 -53.8997
lclavicle -3.926e-014 4.6118e-014
lhumerus 60.6717 42.8427 46.8961
lradius 93.0943
lwrist -10.3577
lhand -5.4621 6.06586
lfingers 7.12502
lthumb 20.3494 35.0197
rfemur -26.7992 -4.95592 17.504
rtibia 80.1148
rfoot 15.9088 -15.1711
rtoes 19.1004
lfemur -33.2191 5.75815 8.63978
ltibia 86.2253
lfoot -158.578 173.439
ltoes 7.4474
2321
root 14.5055 26.1908 39.7682 -206.115 2.51023 -171.761
lowerback 34.5569 -10.3984 3.65042
upperback 5.36154 -8.99044 4.79662
thorax -11.1768 -3.2057 6.6149
lowerneck -4.14435 11.1923 -37.0312
upperneck 3.23688 16.5312 16.4057
head -2.69505 8.28905 10.0003
rclavicle 6.64935e-014 -6.20208e-014
rhumerus 95.0118 18.4614 -73.9197
rradius 101.472
rwrist -346.952
rhand -14.09 -24.3224
rfingers 7.12502
rthumb 12.0423 -53.956
lclavicle 6.64935e-014 -6.20208e-014
lhumerus 60.5118 42.8039 46.8323
lradius 92.9738
lwrist -10.3064
lhand -5.67868 5.92808
lfingers 7.12502
lthumb 20.1412 34.904
rfemur -26.7222 -4.86887 17.5601
rtibia 78.5762
rfoot 16.6701 -14.2539
rtoes 16.5673
lfemur -33.0279 5.46106 8.33663
ltibia 84.6336
lfoot -159.188 171.945
ltoes 2.65254
